<svg width="67" height="70" viewBox="0 0 67 70" fill="none" xmlns="http://www.w3.org/2000/svg">
<path d="M37.9814 15.958C34.2549 16.096 31.2529 16.165 28.9756 16.165C28.113 16.165 26.7241 16.1305 24.8091 16.0615C22.894 15.9925 21.4189 15.958 20.3838 15.958C16.5537 15.958 13.5431 16.9242 11.3521 18.8564C9.14372 20.7887 8.03955 23.299 8.03955 26.3872C8.03955 28.8716 8.77279 31.0972 10.2393 33.064C11.7057 35.0135 13.707 36.411 16.2432 37.2563C15.0872 39.3267 13.5 41.673 11.4814 44.2954C9.5319 46.9006 7.67725 48.945 5.91748 50.4287C4.14046 51.9124 2.23405 52.7492 0.198242 52.939C0.129232 53.215 0.0947266 53.4307 0.0947266 53.5859C0.0947266 53.7585 0.129232 53.9482 0.198242 54.1553C1.2334 54.1035 2.33757 54.069 3.51074 54.0518C4.68392 54.0345 5.99512 54.0259 7.44434 54.0259C8.8763 54.0259 9.98047 54.0173 10.7568 54C15.3978 48.5999 19.1243 43.2861 21.9365 38.0586C23.196 38.0586 24.6452 37.8602 26.2842 37.4634C26.2842 40.8104 26.1893 45.1408 25.9995 50.4546C25.9823 50.9032 25.7839 51.2913 25.4043 51.6191C25.0247 51.9297 24.4813 52.1712 23.7739 52.3438C23.0493 52.5163 22.4455 52.6457 21.9624 52.7319C21.4621 52.8009 20.8151 52.87 20.0215 52.939C19.9525 53.284 19.918 53.5169 19.918 53.6377C19.918 53.7757 19.9525 53.9482 20.0215 54.1553C22.9544 54.0518 25.9564 54 29.0273 54C32.1328 54 35.1348 54.0518 38.0332 54.1553C38.1022 53.9482 38.1367 53.7757 38.1367 53.6377C38.1367 53.3444 38.1022 53.1115 38.0332 52.939C37.5156 52.8872 37.1016 52.8441 36.791 52.8096C36.4805 52.7751 36.0578 52.7147 35.5229 52.6284C34.9709 52.5422 34.5309 52.4473 34.2031 52.3438C33.8581 52.223 33.5044 52.0763 33.1421 51.9038C32.7798 51.7313 32.5124 51.5243 32.3398 51.2827C32.1501 51.0412 32.0552 50.7651 32.0552 50.4546C31.8481 45.0545 31.7446 39.6113 31.7446 34.125C31.7446 28.5352 31.8309 23.7131 32.0034 19.6587C32.0207 19.2101 32.2191 18.8306 32.5986 18.52C32.9782 18.1922 33.5303 17.9421 34.2549 17.7695C34.9622 17.597 35.5661 17.4762 36.0664 17.4072C36.5495 17.321 37.1878 17.2433 37.9814 17.1743C38.0505 16.8638 38.085 16.6481 38.085 16.5273C38.085 16.4238 38.0505 16.234 37.9814 15.958ZM25.9478 17.7437H25.9995C26.1893 24.1099 26.2842 30.0275 26.2842 35.4966C25.0765 35.8934 23.8516 36.0918 22.6094 36.0918C21.4707 36.0918 20.4528 35.902 19.5557 35.5225C18.6413 35.1257 17.8908 34.6081 17.3042 33.9697C16.7176 33.3314 16.2345 32.5809 15.855 31.7183C15.4582 30.8556 15.1821 29.9844 15.0269 29.1045C14.8543 28.2246 14.7681 27.3188 14.7681 26.3872C14.7681 23.8166 15.4754 21.7204 16.8901 20.0986C18.2876 18.4596 20.2803 17.6401 22.8682 17.6401C24.1449 17.6401 25.1714 17.6746 25.9478 17.7437Z" fill="black"/>
<path d="M42.1135 36.4541C42.1135 35.2119 42.0273 29.5272 41.8547 19.3999C41.803 19.0031 41.5959 18.6667 41.2336 18.3906C40.8886 18.0973 40.3796 17.873 39.7068 17.7178C39.0339 17.5625 38.4819 17.4504 38.0505 17.3813C37.6365 17.3123 37.0499 17.2433 36.2908 17.1743C36.2218 16.8638 36.1873 16.6481 36.1873 16.5273C36.1873 16.4238 36.2218 16.234 36.2908 15.958C36.7393 15.9753 37.809 16.0184 39.4998 16.0874C41.1905 16.1392 42.4931 16.165 43.4075 16.165C44.1838 16.165 45.6503 16.1305 47.8069 16.0615C49.9635 15.9925 51.5162 15.958 52.4651 15.958C56.8818 15.958 60.2546 16.9845 62.5837 19.0376C64.9128 21.0907 66.0774 23.8252 66.0774 27.2412C66.0774 30.4847 65.0336 33.133 62.946 35.186C60.8585 37.2391 57.891 38.2656 54.0437 38.2656C51.7319 38.2656 49.6529 37.7826 47.8069 36.8164C47.8069 41.026 47.8586 45.5721 47.9622 50.4546C47.9794 50.9032 48.1778 51.2913 48.5574 51.6191C48.9369 51.9297 49.4804 52.1712 50.1877 52.3438C50.9124 52.5163 51.5162 52.6457 51.9993 52.7319C52.4996 52.8009 53.1466 52.87 53.9402 52.939C54.0092 53.284 54.0437 53.5169 54.0437 53.6377C54.0437 53.7757 54.0092 53.9482 53.9402 54.1553C51.0072 54.0518 48.0053 54 44.9343 54C41.8289 54 38.8269 54.0518 35.9285 54.1553C35.8595 53.9482 35.825 53.7757 35.825 53.6377C35.825 53.3444 35.8595 53.1115 35.9285 52.939C36.7221 52.87 37.3604 52.8009 37.8435 52.7319C38.3438 52.6457 38.9477 52.5163 39.655 52.3438C40.3796 52.1712 40.9317 51.9297 41.3113 51.6191C41.6908 51.2913 41.8892 50.9032 41.9065 50.4546C42.0445 46.0207 42.1135 41.3538 42.1135 36.4541ZM47.9622 17.7437C47.8586 23.9546 47.8069 29.7342 47.8069 35.0825C49.2216 35.7209 50.6277 36.04 52.0251 36.04C54.4578 36.04 56.2865 35.255 57.5115 33.6851C58.7364 32.1151 59.3489 29.9499 59.3489 27.1895C59.3489 20.8232 56.2003 17.6401 49.9031 17.6401C49.5063 17.6401 48.8593 17.6746 47.9622 17.7437Z" fill="black"/>
</svg>
