<svg width="400" height="333" viewBox="0 0 400 333" fill="none" xmlns="http://www.w3.org/2000/svg">
<g clip-path="url(#clip0_71_43)">
<path d="M14.4375 279V55H111.125C127.75 55 142.297 58.026 154.766 64.0781C167.234 70.1302 176.932 78.8437 183.859 90.2188C190.786 101.594 194.25 115.229 194.25 131.125C194.25 147.167 190.677 160.693 183.531 171.703C176.458 182.714 166.505 191.026 153.672 196.641C140.911 202.255 126 205.062 108.938 205.062H51.1875V157.813H96.6875C103.833 157.813 109.922 156.937 114.953 155.187C120.057 153.365 123.958 150.484 126.656 146.547C129.427 142.609 130.813 137.469 130.813 131.125C130.813 124.708 129.427 119.495 126.656 115.484C123.958 111.401 120.057 108.411 114.953 106.516C109.922 104.547 103.833 103.562 96.6875 103.562H75.25V279H14.4375ZM145.688 176.187L201.688 279H135.625L80.9375 176.187H145.688Z" fill="#004DE5"/>
<path d="M214.438 279V55H311.125C327.75 55 342.297 58.2812 354.766 64.8438C367.234 71.4062 376.932 80.6302 383.859 92.5156C390.786 104.401 394.25 118.292 394.25 134.187C394.25 150.229 390.677 164.12 383.531 175.859C376.458 187.599 366.505 196.641 353.672 202.984C340.911 209.328 326 212.5 308.938 212.5H251.188V165.25H296.688C303.833 165.25 309.922 164.01 314.953 161.531C320.057 158.979 323.958 155.37 326.656 150.703C329.427 146.036 330.813 140.531 330.813 134.187C330.813 127.771 329.427 122.302 326.656 117.781C323.958 113.187 320.057 109.687 314.953 107.281C309.922 104.802 303.833 103.562 296.688 103.562H275.25V279H214.438Z" fill="#004DE5"/>
</g>
<defs>
<clipPath id="clip0_71_43">
<rect width="400" height="333" fill="white"/>
</clipPath>
</defs>
</svg>
